<svg xmlns="http://www.w3.org/2000/svg" viewBox="0 0 800 500" font-family="'JetBrains Mono', 'Fira Code', monospace" font-size="13">
  <defs>
    <linearGradient id="bg" x1="0%" y1="0%" x2="100%" y2="100%">
      <stop offset="0%" style="stop-color:#0a0a0c"/>
      <stop offset="100%" style="stop-color:#111114"/>
    </linearGradient>
  </defs>
  <rect width="800" height="500" fill="url(#bg)" rx="12"/>
  <!-- Title bar -->
  <rect width="800" height="36" fill="#16161a" rx="12"/>
  <rect y="24" width="800" height="12" fill="#16161a"/>
  <circle cx="20" cy="18" r="6" fill="#ff5f57"/>
  <circle cx="40" cy="18" r="6" fill="#febc2e"/>
  <circle cx="60" cy="18" r="6" fill="#28c840"/>
  <text x="340" y="22" fill="#71717a" font-size="12" text-anchor="middle">agent-trace</text>

  <!-- Content -->
  <text x="20" y="62" fill="#a78bfa" font-weight="bold">$ agent-trace -a kimi-code</text>

  <text x="20" y="90" fill="#818cf8">  🔍 agent-trace — AI Agent Trajectory Analyzer</text>
  <text x="20" y="108" fill="#52525b">  ─────────────────────────────────────────────</text>

  <text x="20" y="132" fill="#22c55e">  ✓ Found 64 session(s) with content</text>

  <text x="20" y="160" fill="#818cf8" font-weight="bold">  📊 Summary</text>
  <text x="20" y="178" fill="#52525b">  ─────────────────────────────────────────────</text>
  <text x="20" y="198" fill="#ececf1">  Sessions:      </text><text x="140" y="198" fill="#a78bfa" font-weight="bold">64</text>
  <text x="20" y="216" fill="#ececf1">  Total Cost:    </text><text x="140" y="216" fill="#22c55e" font-weight="bold">$4681.95</text>
  <text x="20" y="234" fill="#ececf1">  Total Tokens:  </text><text x="140" y="234" fill="#a78bfa" font-weight="bold">2,323,222,286</text>
  <text x="20" y="252" fill="#ececf1">  Total Messages: </text><text x="152" y="252" fill="#a78bfa" font-weight="bold">3256</text>

  <text x="20" y="280" fill="#818cf8" font-weight="bold">  💰 Top 3 Most Expensive Sessions</text>
  <text x="20" y="298" fill="#52525b">  ─────────────────────────────────────────────</text>
  <text x="20" y="318" fill="#71717a">  Rank  Session ID                    Cost      Tokens</text>
  <text x="20" y="336" fill="#ececf1">     1  session_37ce506c-ecbd-4ac9    </text><text x="340" y="336" fill="#22c55e">$1517.15</text><text x="420" y="336" fill="#a1a1aa">  757M</text>
  <text x="20" y="354" fill="#ececf1">     2  session_bd1b6c0e-a4cc-402c    </text><text x="340" y="354" fill="#22c55e">$1210.12</text><text x="420" y="354" fill="#a1a1aa">  596M</text>
  <text x="20" y="372" fill="#ececf1">     3  session_daecc013-3b5b-44a8    </text><text x="340" y="372" fill="#22c55e">$1080.48</text><text x="420" y="372" fill="#a1a1aa">  538M</text>

  <text x="20" y="400" fill="#818cf8" font-weight="bold">  💬 Latest Session</text>
  <text x="20" y="418" fill="#52525b">  ─────────────────────────────────────────────</text>
  <text x="20" y="438" fill="#06b6d4">[YOU]</text><text x="60" y="438" fill="#ececf1"> 请帮我检查一下项目结构                    </text><text x="560" y="438" fill="#71717a">[14:23:42]</text>
  <text x="20" y="456" fill="#22c55e">[AI ]</text><text x="60" y="456" fill="#ececf1"> 我来检查一下你的项目...                   </text><text x="560" y="456" fill="#71717a">[14:23:43]</text>
  <text x="20" y="474" fill="#f59e0b">[TL ]</text><text x="60" y="474" fill="#ececf1"> Bash ls -la                               </text><text x="560" y="474" fill="#71717a">[14:23:44]</text>

  <!-- Blinking cursor -->
  <rect x="20" y="488" width="8" height="16" fill="#a78bfa" opacity="0.8">
    <animate attributeName="opacity" values="0.8;0;0.8" dur="1s" repeatCount="indefinite"/>
  </rect>
</svg>
